<?xml version="1.0" standalone="no"?><!DOCTYPE svg PUBLIC "-//W3C//DTD SVG 1.1//EN" "http://www.w3.org/Graphics/SVG/1.1/DTD/svg11.dtd"><svg t="1621683608560" class="icon" viewBox="0 0 1024 1024" version="1.1" xmlns="http://www.w3.org/2000/svg" p-id="4107" width="32" height="32" xmlns:xlink="http://www.w3.org/1999/xlink"><defs><style type="text/css"></style></defs><path d="M514 1021.1c-340 0-510-170-510-510s170-510 510-510 510 170 510 510-170 510-510 510z" fill="#FA2A2A" p-id="4108"></path><path d="M514 1C174 1 4 171 4 511c0 99.7 14.7 184.6 43.9 255.1h932.2c29.2-70.5 43.9-155.4 43.9-255.1C1024 171 854 1 514 1z" fill="#FF685C" opacity=".2" p-id="4109"></path><path d="M514 1C174 1 4 171 4 511c0 16.4 0.5 32.3 1.3 47.9h1017.5c0.8-15.6 1.3-31.5 1.3-47.9C1024 171 854 1 514 1z" fill="#FF685C" opacity=".4" p-id="4110"></path><path d="M6.1 447.3h1015.8C1001.3 149.8 832 1 514 1 195.9 1 26.6 149.8 6.1 447.3z" fill="#FF685C" opacity=".4" p-id="4111"></path><path d="M997 303.9C936.9 102 775.9 1 514 1 252 1 91 102 30.9 303.9H997z" fill="#FF685C" opacity=".4" p-id="4112"></path><path d="M954.6 208.2v-7.9C874.9 67.5 728.7 1 516.2 1 299.5 1 152 70.2 73.4 208.2h881.2z" fill="#FF685C" opacity=".4" p-id="4113"></path><path d="M911.5 144.5C826.8 48.8 694.3 1 514 1S201.1 48.8 116.4 144.5h795.1z" fill="#FF685C" opacity=".6" p-id="4114"></path><path d="M778.3 48.9C706.1 17 618 1 514 1S321.8 17 249.6 48.9h528.7z" fill="#FF685C" p-id="4115"></path><path d="M667.5 240.1H395c-24.9 0-45.6 16.2-51.6 37.9 0 0-21 18.1-42 119.9-8.5 41.1 35.9 75.9 80.2 75.9 27.9 0 52.5-13.5 66.9-34 14.4 20.5 54.9 34 82.8 34s68.4-13.5 82.8-34c14.4 20.5 38.9 34 66.8 34 44.3 0 89-34.8 80.2-75.9-21.2-99.9-42-119.9-42-119.9-5.9-21.7-26.7-37.9-51.6-37.9z" fill="#FFFFFF" p-id="4116"></path><path d="M692.6 391.3c0-8.8 7.1-15.9 15.9-15.9s15.9 7.1 15.9 15.9v273.8c0 28.3-23.2 51.4-51.8 51.4H389.8c-28.6 0-51.8-23-51.8-51.4V391.3c0-8.8 7.1-15.9 15.9-15.9s15.9 7.1 15.9 15.9h322.8z" fill="#FFFFFF" opacity=".5" p-id="4117"></path><path d="M516.9 536.3c13.3 13.2 74.9-22 85.1 25.7 7 32.9-24 66.3-76.8 59.9-36-4.4-65.7-27.2-65.7-60.7 0-33.6 38.7-43.5 57.4-24.9z" fill="#FFFFFF" p-id="4118"></path></svg>