<?xml version="1.0" standalone="no"?><!DOCTYPE svg PUBLIC "-//W3C//DTD SVG 1.1//EN" "http://www.w3.org/Graphics/SVG/1.1/DTD/svg11.dtd"><svg t="1620972343113" class="icon" viewBox="0 0 1024 1024" version="1.1" xmlns="http://www.w3.org/2000/svg" p-id="5620" width="32" height="32" xmlns:xlink="http://www.w3.org/1999/xlink"><defs><style type="text/css"></style></defs><path d="M609.633259 586.698936c117.519664-41.371719 202.061872-153.195277 202.061871-284.705377C811.69513 135.407436 676.087831 0 509.60164 0S207.508149 135.407436 207.508149 301.993559c0 131.510101 84.542207 243.233727 201.96194 284.705377C218.000976 632.067922 74.8988 804.050356 74.8988 1009.310042v14.689958h869.405679V1009.310042c0-205.259686-143.102176-377.24212-334.67122-422.611106zM236.987996 301.993559c0-150.297258 122.316385-272.613643 272.613644-272.613643s272.613643 122.216454 272.613643 272.613643S659.898897 574.607202 509.60164 574.607202 236.987996 452.390749 236.987996 301.993559zM104.678442 994.620084c7.794672-216.651898 186.472529-390.533034 405.023129-390.533034s397.128525 173.881136 405.023129 390.533034H104.678442z" fill="#343234" p-id="5621"></path><path d="M593.344393 433.603591c-67.753684 47.167756-131.110374 26.781692-162.988582 10.492827-41.571582-21.385381-64.256075-52.763931-64.356006-60.958329-0.099932-8.094467-6.695423-14.590026-14.689958-14.590026h-0.199864c-8.094467 0-14.590026 6.595491-14.590026 14.590026 0 25.282717 34.776227 63.35669 79.245828 86.540841 20.485996 10.692691 51.964477 22.884356 89.338929 22.884357 31.878208 0 67.953547-8.793988 105.128135-34.676296 6.695423-4.596858 8.394262-13.790573 3.59754-20.485996-4.696789-6.795355-13.890505-8.494193-20.485996-3.797404z m63.556554-67.653752c-9.49351 0-17.18825 7.69474-17.188251 17.18825s7.69474 17.18825 17.188251 17.18825 17.18825-7.69474 17.18825-17.18825-7.594808-17.18825-17.18825-17.18825z" fill="#343234" p-id="5622"></path></svg>