<?xml version="1.0" standalone="no"?><!DOCTYPE svg PUBLIC "-//W3C//DTD SVG 1.1//EN" "http://www.w3.org/Graphics/SVG/1.1/DTD/svg11.dtd"><svg t="1620972349548" class="icon" viewBox="0 0 1027 1024" version="1.1" xmlns="http://www.w3.org/2000/svg" p-id="5817" width="32.09375" height="32" xmlns:xlink="http://www.w3.org/1999/xlink"><defs><style type="text/css"></style></defs><path d="M61.682831 1023.805069a64.756039 64.756039 0 0 1-48.342859-23.001844 63.391523 63.391523 0 0 1-11.695853-53.0212 527.560943 527.560943 0 0 1 420.582874-422.454211A266.821393 266.821393 0 0 1 243.70929 275.270477a265.106001 265.106001 0 1 1 529.861127 0 266.899365 266.899365 0 0 1-186.7048 252.942314 575.435967 575.435967 0 0 1 126.822033 35.087559 417.775869 417.775869 0 0 1 46.081661 23.001845 527.911818 527.911818 0 0 1 255.710332 361.674761 57.660555 57.660555 0 0 1-13.840092 53.0212 64.756039 64.756039 0 0 1-48.342859 23.001844z" p-id="5818"></path></svg>