<?xml version="1.0" standalone="no"?><!DOCTYPE svg PUBLIC "-//W3C//DTD SVG 1.1//EN" "http://www.w3.org/Graphics/SVG/1.1/DTD/svg11.dtd"><svg t="1620972199275" class="icon" viewBox="0 0 1024 1024" version="1.1" xmlns="http://www.w3.org/2000/svg" p-id="4539" width="32" height="32" xmlns:xlink="http://www.w3.org/1999/xlink"><defs><style type="text/css"></style></defs><path d="M355.728 826.384c-26.554 0-48.061 21.507-48.061 48.061s21.507 48.061 48.061 48.061 48.061-21.507 48.061-48.061-21.507-48.061-48.061-48.061z m412.756 0c-26.554 0-48.061 21.507-48.061 48.061s21.507 48.061 48.061 48.061 48.061-21.507 48.061-48.061-21.507-48.061-48.061-48.061z m73.253-46.619H351.918c-19.974 0-39.496-7.668-54.971-21.592-15.492-13.939-25.371-32.746-27.815-52.955l-0.004-0.034-51.159-360.168-29.084-168.179-0.058-0.417c-2.246-16.221-17.087-29.925-32.408-29.925H118c-13.807 0-25-11.193-25-25s11.193-25 25-25h38.418c40.122 0 75.994 31.859 81.871 72.613l29.074 168.122 51.404 361.965c0.994 8.221 5.121 15.959 11.622 21.809 6.28 5.65 13.925 8.762 21.528 8.762h489.819c13.808 0 25 11.193 25 25s-11.191 24.999-24.999 24.999zM389.532 657.269c-12.972 0-23.937-10.019-24.906-23.163-1.015-13.77 9.325-25.755 23.094-26.771l408.873-30.139 0.59-0.016c16.205-0.428 30.604-12.955 32.781-28.521l0.132-0.841 47.394-271.179c0.016-0.086 0.024-0.151 0.032-0.216 1.395-11.716-1.94-23.753-8.703-31.425-4.64-5.25-10.736-8.037-17.613-8.037H329.09c-13.807 0-25-11.193-25-25s11.193-25 25-25h522.116c21.316 0 40.886 8.861 55.102 24.952 16.142 18.311 23.936 44.625 20.865 70.411a53.075 53.075 0 0 1-0.433 2.946l-47.323 270.777c-5.732 39.299-40.099 69.724-80.271 71.097L391.396 657.2a25.4 25.4 0 0 1-1.864 0.069z" fill="" p-id="4540"></path></svg>